<svg id="_1024x1024" data-name="1024x1024" xmlns="http://www.w3.org/2000/svg" viewBox="0 0 1024 1024"><defs><style>.cls-1{fill:#fff;}.cls-2{fill:#008587;}</style></defs><title>Monitor_Product icon</title><path class="cls-1" d="M248.46,817s35.52-34.94,72.09-70.94,98.39,27,98.39,27l86.43,87.83C843.2,528.45,744.32,280,744.32,280S497.56,177.08,159.7,509.52l86.39,87.85s61.86,62.87,25.33,98.82-72.06,70.89-72.06,70.89-36.19-.32-49.92,13.17c-2.89,2.82-19.5,19.16-43.89,43.16a515,515,0,0,0,84.67,86.86c24.56-24.21,41.34-40.76,44.26-43.58C248.22,853.21,248.46,817,248.46,817Z"/><path class="cls-2" d="M1024,512C1024,229.23,794.77,0,512,0S0,229.23,0,512A509.76,509.76,0,0,0,105.56,823.41c24.39-24,41-40.34,43.89-43.16,13.72-13.49,49.92-13.17,49.92-13.17s35.55-34.94,72.06-70.89-25.33-98.82-25.33-98.82L159.7,509.52C497.56,177.08,744.32,280,744.32,280s98.88,248.43-239,580.84L418.94,773s-61.86-62.87-98.39-27S248.46,817,248.46,817s-.24,36.21-14,49.7c-2.92,2.82-19.71,19.36-44.26,43.58A509.86,509.86,0,0,0,512,1024C794.77,1024,1024,794.77,1024,512Z"/></svg>