<svg id="Layer_1" data-name="Layer 1" xmlns="http://www.w3.org/2000/svg" viewBox="0 0 128 128"><defs><style>.cls-1,.cls-3{fill:#fff;}.cls-2,.cls-5{fill:none;}.cls-2{stroke:#0e1027;stroke-width:3.49px;}.cls-2,.cls-3,.cls-5{stroke-miterlimit:10;}.cls-3{stroke:#cef3f7;stroke-width:1.41px;}.cls-4{fill:#3bcede;}.cls-5{stroke:#0a1429;stroke-width:4.67px;}</style></defs><title>Artboard 1</title><rect class="cls-1" x="80.82" y="71.51" width="23.03" height="41.65" transform="translate(-38.25 92.34) rotate(-45)"/><rect class="cls-2" x="80.82" y="71.51" width="23.03" height="41.65" transform="translate(-38.25 92.34) rotate(-45)"/><path class="cls-3" d="M83.3,71.91,70.81,59.42l16-16-20-20C47.12,3.68,15.16,15.16,15.16,15.16s-11.48,32,8.19,51.64l20,20,16-16L71.91,83.3Z"/><path class="cls-1" d="M27.55,27.54C26.23,35.48,25.82,48.06,34,56.19l9.43,9.44"/><path class="cls-4" d="M107.06,107.06l-8.14,8.14L69.47,85.75l2.44-2.45L59.42,70.81l-16,16-20-20C3.68,47.12,15.16,15.16,15.16,15.16Z"/><path class="cls-5" d="M27.55,27.54C26.23,35.48,25.82,48.06,34,56.19l9.43,9.44M83.3,71.91,70.81,59.42l16-16-20-20C47.12,3.68,15.16,15.16,15.16,15.16s-11.48,32,8.19,51.64l20,20,16-16L71.91,83.3Z"/><rect class="cls-5" x="80.82" y="71.51" width="23.03" height="41.65" transform="translate(-38.25 92.34) rotate(-45)"/></svg>